<?xml version="1.0" encoding="UTF-8"?>
<!DOCTYPE svg PUBLIC "-//W3C//DTD SVG 1.1//EN" "http://www.w3.org/Graphics/SVG/1.1/DTD/svg11.dtd">
<!-- Creator: CorelDRAW X6 -->
<svg xmlns="http://www.w3.org/2000/svg" xml:space="preserve" width="175mm" height="90mm" version="1.1" style="shape-rendering:geometricPrecision; text-rendering:geometricPrecision; image-rendering:optimizeQuality; fill-rule:evenodd; clip-rule:evenodd"
viewBox="0 0 17500 9000"
 xmlns:xlink="http://www.w3.org/1999/xlink">
 <defs>
  <style type="text/css">
   <![CDATA[
    .fil0 {fill:white}
    .fil1 {fill:white;
          fill-rule:nonzero}
   ]]>
  </style>
 </defs>
 <g id="Слой_x0020_1">
  <metadata id="CorelCorpID_0Corel-Layer"/>
  <path class="fil0" d="M9339 7210c-286,157 -594,85 -958,109 -99,152 -74,154 -110,368l-95 -385c-293,61 -222,113 -477,238l261 -371 -441 -136 447 -44c-59,-203 -104,-180 -188,-410l401 268 97 -413 107 431 360 -49c85,-210 -12,-765 -14,-779l-30 -113c-720,-430 -299,-244 -709,-490l6 -147c232,156 116,89 405,335 228,140 274,111 512,220 7,85 10,976 -12,1071 -484,224 -548,-30 -776,145 161,208 783,144 1060,64 139,-275 95,-586 76,-906 105,123 147,141 146,457 0,194 -38,351 -68,537z"/>
  <path class="fil0" d="M8027 5147c-248,-19 -347,-37 -260,-271 171,64 7,-89 173,100 69,78 52,93 87,171z"/>
  <path class="fil0" d="M14000 943c1247,396 2330,1170 2784,2343 138,559 -85,1222 -459,1634 -441,486 -1231,894 -1921,874 -11,-1 -20,-7 -24,-17 -127,-288 -201,-306 -540,-561 236,39 582,195 546,-180 -37,-393 -296,-127 -131,-566 10,-26 -15,-33 -41,-23 -70,29 -140,58 -210,86 -15,6 -31,0 -36,-16 -26,-74 -52,-148 -78,-222 -10,-27 -39,-29 -51,-2 -37,80 -73,159 -110,239 -5,12 -16,17 -28,16 -213,-21 -296,-63 -371,-189 21,168 76,151 154,311 8,15 3,35 -13,41 -93,36 -185,72 -277,108 -13,5 -37,12 -54,22 625,8 688,-87 823,92 -349,-5 -757,-117 -1065,20 -6,2 -10,6 -13,12 -150,284 92,469 175,692 8,22 -8,39 -31,36 -868,-141 -1594,-86 -2464,-97 0,1 0,2 0,3l-220 -2c205,-57 411,-113 617,-170 12,-4 20,-13 20,-26 8,-283 17,-567 25,-850 0,-13 9,-23 21,-26 119,-27 237,-54 355,-81 -105,-109 -187,-7 -383,-115 -13,-7 -19,-22 -13,-36 57,-142 147,-188 231,-265 -292,92 -138,87 -380,173 -80,-163 -24,-176 -137,-309 -39,150 16,179 -47,304 -7,13 -24,23 -37,17 -150,-65 -170,-59 -323,-169 124,203 129,104 188,335l-403 94c423,31 314,-10 511,186 8,9 7,17 2,27 -43,97 -87,193 -130,290 -4,9 -14,16 -24,16 -1171,-11 -961,63 -1094,-162 -37,-64 -116,-246 -159,-342 -3,-6 -7,-10 -13,-13 -20,-11 -40,-21 -61,-32l-35 -22 -200 -128c-506,-178 16,62 -379,57 -4,0 -21,-2 -24,-5 -16,-21 -72,-91 -74,-94 -125,-215 96,-118 -214,-258 -170,-77 -443,-138 -655,-66 -10,3 -16,11 -18,21 -44,228 30,402 67,582 3,12 10,13 23,15 100,16 114,142 -17,-456 340,175 998,882 1354,1176 1686,1394 4209,1713 6244,824 2659,-1163 1785,-2902 1782,-3400 76,69 37,21 110,121l55 87c792,1405 -629,3035 -2296,3698 -756,301 -239,46 -592,528 -161,221 -393,319 -584,504 316,-53 238,-95 611,-39 14,2 45,16 44,31 -5,283 -165,546 -478,587 -4,0 -13,0 -16,-2 -143,-121 -107,-75 -194,-254 -10,-23 11,-23 36,-28 315,-61 212,119 393,-146 -357,40 -589,156 -996,39 -10,-3 -18,-10 -20,-21 -102,-460 314,-569 522,-910 -331,59 -257,215 -909,273 -1057,94 -1700,-6 -2520,-336 -2,-1 -4,-2 -5,-2 -8,-3 -11,-4 -16,-4 -23,0 -41,19 -41,42 0,14 7,27 19,34 888,454 2147,432 2862,409 24,-1 31,18 26,42 -39,191 -105,148 -76,480 1,8 5,19 11,23 199,148 456,108 565,136 80,20 28,102 116,170 13,9 14,24 5,37 -99,135 -198,269 -297,404l342 -235c125,-81 -42,-4 131,-72 118,162 125,432 178,624 24,-183 48,-367 72,-550 1,-10 7,-18 16,-22 157,-74 247,23 391,63 -370,-436 -20,-293 23,-802 1,-12 -4,-21 -14,-28 -133,-95 -173,-55 -292,-160 -13,-11 -18,-33 -4,-44 401,-328 215,-410 894,-710 674,-123 2126,-1061 2377,-2564 251,-1502 -1239,-2824 -2465,-3313 -1417,-565 -2898,-742 -4350,-196 -65,25 -173,67 -274,117l-332 156c-12,7 -20,20 -20,35 0,23 19,41 41,41 3,0 6,0 9,-1l0 0c66,-22 134,-45 205,-69 1113,-335 2525,-316 3772,81zm-146 -136c-854,-247 -1507,-234 -1505,-234 -20,-3 -35,-20 -35,-41 0,-22 17,-40 39,-41 1,0 0,0 1,0 317,0 668,22 1060,72 207,35 936,144 1727,566 568,221 1865,1319 1775,2100 -122,-171 -197,-429 -345,-625 -806,-1042 -1863,-1550 -2717,-1797z"/>
  <path class="fil1" d="M64 3212l0 -1493 18 0 298 0 0 1493 -18 0 -298 0zm490 0l0 -1194 18 0 252 0 0 40c4,-2 8,-5 13,-8 4,-3 9,-6 14,-9 21,-12 46,-23 74,-33 28,-10 56,-15 86,-15l18 0c51,0 85,14 102,43 17,29 27,61 31,95 1,10 2,20 2,30 0,10 0,19 0,29l0 1022 -18 0 -252 0 0 -1011c0,-10 -4,-18 -10,-26 -7,-8 -15,-12 -24,-14 -10,2 -18,6 -25,13 -7,7 -11,16 -11,27l0 1011 -17 0 -253 0zm1368 -1491l0 1491 -17 0 -253 0 0 -40c-32,26 -61,43 -88,51 -26,8 -50,12 -70,12l-18 1c-49,-1 -86,-14 -108,-40 -23,-25 -38,-53 -46,-84 -4,-18 -6,-35 -7,-51 -2,-16 -2,-30 -2,-41l0 -827c0,-10 0,-22 1,-34 0,-13 1,-25 2,-37 6,-32 20,-61 41,-88 22,-28 60,-41 116,-41l18 0c10,0 20,0 30,1 9,2 19,3 28,6 17,3 33,9 50,18 17,8 34,19 53,33l0 -330 18 0 252 0zm-339 467l0 853c0,8 3,16 10,24 6,8 15,13 27,15 10,-2 17,-7 23,-15 6,-8 9,-16 9,-24l0 -853c0,-9 -3,-18 -9,-26 -6,-7 -14,-12 -25,-13 -10,1 -19,6 -25,13 -7,8 -10,17 -10,26zm1080 1024l-252 0 0 -38c-25,19 -53,34 -85,45 -31,10 -64,16 -100,16l-18 1c-53,-1 -88,-18 -105,-50 -18,-33 -27,-69 -30,-108 -1,-7 -1,-14 -1,-21 0,-7 0,-14 0,-21l0 -1018 17 0 253 0 0 1009c0,1 0,2 0,4 0,2 0,4 1,6 2,6 4,12 9,18 5,6 11,10 20,13 9,-3 17,-6 23,-11 6,-5 10,-10 12,-16 1,-2 2,-5 3,-7 1,-3 1,-5 1,-7l0 -1009 18 0 252 0 0 1194 -18 0zm185 -397l252 0 0 221c0,11 3,21 10,28 6,7 14,12 22,14 1,0 2,0 3,0 0,0 1,0 3,-2 7,-2 14,-6 21,-13 7,-6 11,-16 11,-27l0 -196c0,-29 -6,-51 -16,-65 -11,-13 -24,-25 -38,-36 -2,-1 -4,-2 -6,-4 -2,-1 -3,-2 -4,-3 -3,-3 -5,-5 -7,-6 -1,-2 -4,-4 -6,-5l-185 -151c-13,-11 -24,-21 -33,-30 -8,-10 -16,-19 -22,-29 -10,-16 -17,-34 -18,-52 -2,-18 -3,-40 -3,-67l0 -199c0,-10 0,-23 1,-37 0,-14 2,-28 6,-42 7,-30 24,-58 51,-83 26,-26 73,-38 141,-38l18 0 206 0c59,0 102,11 128,33 26,23 43,47 51,73 6,17 9,33 10,48 1,16 1,29 1,39 0,2 0,2 0,3 0,1 0,2 0,3l0 188 -18 0 -252 0 0 -187c0,-2 0,-5 -1,-8 -1,-4 -2,-8 -4,-13 -3,-5 -6,-9 -11,-14 -5,-5 -11,-8 -18,-9 -9,1 -17,4 -21,10 -5,5 -9,11 -11,17 -1,3 -2,7 -3,9 0,3 0,6 0,8l0 150c0,22 5,42 17,58 12,17 25,31 39,43 5,4 9,7 13,10 3,3 7,5 10,8l169 128c14,10 26,21 36,31 9,10 18,20 25,29 14,21 23,43 26,65 4,22 6,46 6,74l0 236c0,9 -1,23 -3,42 -2,18 -6,38 -13,59 -11,27 -30,52 -56,75 -27,22 -67,34 -120,34l-18 1 -217 0c-55,-1 -96,-13 -122,-35 -26,-23 -44,-48 -54,-77 -7,-20 -11,-39 -12,-57 -1,-19 -2,-33 -2,-42l0 -210 18 0zm698 -641l0 -156 101 0 0 -295 18 0 251 0 0 295 126 0 0 156 -126 0 0 785c0,31 8,54 24,70 16,16 36,26 61,28 2,0 4,0 6,-1 2,-1 4,-1 6,-1 2,0 3,0 6,-1 2,0 4,-1 5,-1l18 0 0 183 -18 0 -165 0c-65,-1 -113,-13 -142,-36 -30,-23 -49,-49 -59,-77 -5,-18 -8,-35 -9,-52 -1,-16 -2,-30 -2,-41 0,-1 0,-2 0,-2 0,-1 0,-2 0,-3l0 -851 -101 0zm613 -156l252 0 0 42c42,-27 77,-45 107,-54 30,-9 58,-13 85,-13l18 0c49,0 81,13 98,41 16,27 26,57 30,90 1,12 2,23 2,34 0,11 0,21 0,30 0,1 0,2 0,3 0,0 0,1 0,1l0 248 -18 0 -252 0 0 -238c0,-2 -1,-4 -1,-7 -1,-2 -2,-4 -3,-7 -1,-6 -4,-11 -10,-16 -5,-5 -12,-8 -20,-11 -12,3 -21,8 -27,16 -6,7 -9,16 -9,25l0 1010 -17 0 -253 0 0 -1194 18 0zm716 1194l0 -1194 18 0 250 0 0 1194 -17 0 -251 0zm0 -1289l0 -252 18 0 250 0 0 252 -17 0 -251 0zm418 473l0 -208c0,-60 12,-104 37,-131 25,-28 52,-45 82,-54 16,-4 33,-7 49,-9 16,-1 29,-1 41,-1l18 0 217 0c51,0 91,16 121,49 29,34 44,82 44,144l0 1026 -18 0 -252 0 0 -47c-21,19 -46,36 -75,49 -28,14 -59,21 -94,21l-18 1c-46,-1 -80,-12 -101,-33 -21,-22 -35,-45 -42,-71 -5,-18 -8,-35 -8,-51 -1,-16 -1,-29 -1,-38 0,-1 0,-2 0,-3 0,-1 0,-1 0,-1l0 -302c0,-28 6,-53 20,-74 14,-22 35,-42 65,-61 15,-9 32,-19 51,-28 18,-10 39,-20 63,-31 2,-1 5,-2 8,-3 3,-1 5,-2 8,-4 34,-15 63,-33 88,-54 24,-21 36,-53 36,-98l0 -194c0,-10 -4,-18 -11,-26 -7,-8 -16,-13 -26,-15 -10,1 -18,6 -23,14 -6,9 -9,17 -9,27l0 206 -18 0 -252 0zm339 627l0 -421c-27,11 -45,23 -54,37 -9,15 -14,29 -15,45 0,3 0,7 0,10 0,4 0,8 0,11 0,1 0,2 0,3 0,0 0,1 0,1l0 314c0,10 3,18 9,26 7,8 15,13 24,15 9,-1 16,-5 22,-11 6,-6 10,-11 12,-17 0,-3 0,-5 1,-7 1,-1 1,-3 1,-6zm419 189l0 -1491 18 0 252 0 0 1491 -17 0 -253 0zm1086 0l0 -1493 18 0 470 0c70,0 120,14 151,42 30,28 50,58 59,90 5,17 8,35 9,51 1,17 2,31 2,45l0 1039c0,0 0,0 0,1 0,0 0,1 0,1 0,10 -1,25 -2,44 -1,19 -5,39 -13,59 -10,29 -31,57 -61,82 -30,26 -78,39 -145,39l-17 0 -471 0zm316 -164l11 0c2,0 5,0 8,-1 3,0 6,-1 9,-1 12,-3 23,-11 33,-22 10,-11 15,-30 15,-56l0 -1007c0,-24 -4,-41 -14,-53 -9,-11 -19,-18 -30,-22 -5,-1 -9,-2 -12,-3 -4,0 -8,0 -11,0l-9 0 0 1165zm899 -259l252 0 0 243c0,68 -12,115 -35,142 -24,27 -50,45 -78,53 -15,4 -28,6 -40,7 -13,0 -24,1 -35,1l-18 1 -209 0c-62,-1 -106,-13 -132,-36 -26,-23 -44,-49 -53,-77 -5,-17 -8,-33 -8,-48 -1,-16 -1,-29 -1,-39 0,-2 0,-2 0,-3 0,-1 0,-1 0,-1l0 -833c0,-68 18,-119 53,-154 36,-35 83,-52 141,-52l17 0 208 0c6,0 18,1 36,2 18,2 36,8 57,19 24,12 47,32 67,60 20,27 30,69 30,123l0 476 -339 0 0 368c0,2 0,4 1,6 0,2 1,4 1,6 2,6 5,12 10,16 4,5 9,9 16,11 12,-2 22,-7 30,-15 7,-8 11,-16 11,-24l0 -252 18 0zm-87 -249l69 0 0 -352c0,-9 -4,-18 -11,-26 -8,-7 -18,-12 -30,-13 -7,2 -12,6 -16,11 -5,4 -8,10 -10,16 0,2 -1,4 -1,6 -1,2 -1,4 -1,6l0 352zm602 684l-151 -1206 18 0 261 0 41 632 46 -632 18 0 265 0 -164 1206 -17 0 -317 0zm967 -435l252 0 0 243c0,68 -12,115 -35,142 -24,27 -50,45 -79,53 -14,4 -27,6 -40,7 -12,0 -24,1 -34,1l-18 1 -210 0c-61,-1 -105,-13 -131,-36 -26,-23 -44,-49 -53,-77 -5,-17 -8,-33 -8,-48 -1,-16 -1,-29 -1,-39 0,-2 0,-2 0,-3 0,-1 0,-1 0,-1l0 -833c0,-68 17,-119 53,-154 36,-35 82,-52 140,-52l18 0 208 0c6,0 18,1 35,2 18,2 37,8 57,19 25,12 48,32 68,60 20,27 30,69 30,123l0 476 -339 0 0 368c0,2 0,4 1,6 0,2 1,4 1,6 2,6 5,12 9,16 4,5 10,9 17,11 12,-2 22,-7 29,-15 8,-8 12,-16 12,-24l0 -252 18 0zm-87 -249l69 0 0 -352c0,-9 -4,-18 -12,-26 -7,-7 -17,-12 -29,-13 -7,2 -13,6 -17,11 -4,4 -7,10 -9,16 0,2 -1,4 -1,6 -1,2 -1,4 -1,6l0 352zm488 672l0 -1491 18 0 252 0 0 1491 -17 0 -253 0zm420 -187l0 -816c0,-65 13,-112 39,-143 26,-30 54,-50 85,-61 15,-5 31,-8 46,-10 16,-1 29,-2 41,-2l18 0 169 0c58,0 101,11 131,34 30,23 50,49 60,78 10,22 16,43 17,63 2,19 3,33 3,41l0 816c0,9 -1,23 -2,42 -1,18 -6,37 -14,57 -11,29 -30,54 -59,77 -30,22 -75,34 -136,34l-18 1 -169 0c-62,-1 -107,-13 -136,-35 -29,-23 -49,-48 -59,-77 -9,-20 -13,-39 -15,-57 -1,-19 -1,-33 -1,-42zm270 -835l0 849c0,10 3,18 9,26 7,8 15,13 24,15 8,-1 13,-4 18,-9 5,-5 9,-9 13,-14 1,-4 2,-7 3,-10 1,-3 2,-5 2,-8l0 -849c0,-2 -1,-5 -2,-8 -1,-3 -2,-6 -3,-10 -4,-5 -8,-9 -13,-14 -5,-5 -10,-8 -18,-9 -9,2 -17,7 -24,15 -6,8 -9,16 -9,26zm488 1419l0 -1591 18 0 252 0 0 33c22,-16 46,-30 74,-41 28,-12 58,-17 92,-17l17 0c49,0 84,13 106,39 22,26 36,55 44,87 2,15 4,30 5,45 1,15 2,28 2,40l0 819c0,12 -1,25 -1,39 -1,14 -3,29 -6,43 -6,33 -21,63 -44,90 -23,26 -62,40 -118,40l-18 1c-19,-1 -42,-5 -69,-13 -27,-8 -55,-24 -84,-49l0 435 -17 0 -253 0zm270 -1423l0 855c0,9 4,18 10,25 7,7 14,12 22,14 10,-2 18,-6 26,-12 8,-6 12,-15 12,-27l0 -855c0,-11 -4,-21 -12,-27 -8,-7 -16,-11 -26,-12 -8,1 -15,6 -22,14 -6,7 -10,16 -10,25zm489 1026l0 -1194 18 0 252 0 0 42c3,-3 8,-7 12,-10 5,-3 10,-6 15,-9 19,-12 40,-23 65,-33 25,-10 52,-15 82,-15l18 0c12,0 24,1 37,4 13,3 26,9 39,17 9,6 17,13 25,20 8,8 16,18 23,30 45,-35 85,-55 119,-62 35,-6 61,-9 80,-9l18 0c47,0 81,13 101,41 20,27 33,56 39,88 3,16 4,31 5,45 0,14 1,27 1,39l0 1006 -18 0 -252 0 0 -1010c0,-10 -3,-19 -9,-27 -6,-8 -14,-12 -23,-14 -11,2 -20,6 -27,14 -7,8 -11,17 -11,27l0 1010 -17 0 -253 0 0 -1011c0,-10 -3,-18 -9,-26 -6,-8 -13,-12 -23,-14 -10,2 -19,6 -26,13 -8,7 -11,16 -11,27l0 1011 -18 0 -252 0zm1455 -423l252 0 0 243c0,68 -12,115 -35,142 -24,27 -50,45 -78,53 -15,4 -28,6 -40,7 -13,0 -24,1 -35,1l-18 1 -209 0c-62,-1 -106,-13 -132,-36 -26,-23 -44,-49 -53,-77 -5,-17 -8,-33 -8,-48 -1,-16 -1,-29 -1,-39 0,-2 0,-2 0,-3 0,-1 0,-1 0,-1l0 -833c0,-68 18,-119 53,-154 36,-35 82,-52 141,-52l17 0 208 0c6,0 18,1 36,2 17,2 36,8 57,19 24,12 47,32 67,60 20,27 30,69 30,123l0 476 -339 0 0 368c0,2 0,4 1,6 0,2 1,4 1,6 2,6 5,12 9,16 5,5 10,9 17,11 12,-2 22,-7 30,-15 7,-8 11,-16 11,-24l0 -252 18 0zm-87 -249l69 0 0 -352c0,-9 -4,-18 -11,-26 -8,-7 -18,-12 -30,-13 -7,2 -12,6 -17,11 -4,4 -7,10 -9,16 0,2 -1,4 -1,6 -1,2 -1,4 -1,6l0 352zm489 672l0 -1194 17 0 253 0 0 40c3,-2 7,-5 12,-8 5,-3 9,-6 14,-9 22,-12 46,-23 74,-33 28,-10 56,-15 86,-15l18 0c51,0 85,14 102,43 17,29 28,61 31,95 1,10 2,20 2,30 0,10 0,19 0,29l0 1022 -18 0 -252 0 0 -1011c0,-10 -3,-18 -10,-26 -6,-8 -14,-12 -24,-14 -9,2 -18,6 -25,13 -7,7 -10,16 -10,27l0 1011 -18 0 -252 0zm708 -1038l0 -156 102 0 0 -295 17 0 251 0 0 295 126 0 0 156 -126 0 0 785c0,31 8,54 24,70 16,16 36,26 61,28 3,0 5,0 6,-1 2,-1 4,-1 7,-1 1,0 3,0 5,-1 2,0 4,-1 5,-1l18 0 0 183 -18 0 -165 0c-65,-1 -112,-13 -142,-36 -30,-23 -49,-49 -59,-77 -4,-18 -7,-35 -9,-52 -1,-16 -1,-30 -1,-41 0,-1 0,-2 0,-2 0,-1 0,-2 0,-3l0 -851 -102 0z"/>
 </g>
</svg>
